<svg id="Layer_1" data-name="Layer 1" xmlns="http://www.w3.org/2000/svg" viewBox="0 0 28 25"><defs><style>.cls-1{fill:#445cfd;}</style></defs><title>footer-burger</title><g id="Rectangle"><path class="cls-1" d="M806.5,154h-23a2.5,2.5,0,0,0,0,5h23a2.5,2.5,0,0,0,0-5Z" transform="translate(-781 -154)"/></g><g id="Rectangle-2" data-name="Rectangle"><path class="cls-1" d="M806.5,164h-23a2.5,2.5,0,0,0,0,5h23a2.5,2.5,0,0,0,0-5Z" transform="translate(-781 -154)"/></g><g id="Rectangle-3" data-name="Rectangle"><path class="cls-1" d="M806.5,174h-23a2.5,2.5,0,0,0,0,5h23a2.5,2.5,0,0,0,0-5Z" transform="translate(-781 -154)"/></g></svg>