<svg id="Layer_1" data-name="Layer 1" xmlns="http://www.w3.org/2000/svg" viewBox="0 0 40 40"><defs><style>.cls-1{fill:#445cfd;}.cls-2{fill:#dce3e6;}</style></defs><title>logo</title><g id="Ellipse"><path class="cls-1" d="M733.67,473.75h0c-4.08,5.35,2,11.4,7.32,7.32C745.07,475.72,739,469.67,733.67,473.75Z" transform="translate(-732.33 -472.41)"/></g><g id="Ellipse-2" data-name="Ellipse"><path class="cls-2" d="M748.67,473.75h0c-4.08,5.35,2,11.4,7.32,7.32C760.07,475.72,754,469.67,748.67,473.75Z" transform="translate(-732.33 -472.41)"/></g><g id="Ellipse-3" data-name="Ellipse"><path class="cls-1" d="M763.67,473.75h0c-4.08,5.35,2,11.4,7.32,7.32C775.07,475.72,769,469.67,763.67,473.75Z" transform="translate(-732.33 -472.41)"/></g><g id="Ellipse-4" data-name="Ellipse"><path class="cls-1" d="M733.66,488.75c-4.07,5.35,2,11.4,7.33,7.32C745.07,490.72,739,484.67,733.66,488.75Z" transform="translate(-732.33 -472.41)"/></g><g id="Ellipse-5" data-name="Ellipse"><path class="cls-1" d="M748.67,488.75c-4.08,5.35,2,11.4,7.32,7.32C760.07,490.72,754,484.67,748.67,488.75Z" transform="translate(-732.33 -472.41)"/></g><g id="Ellipse-6" data-name="Ellipse"><path class="cls-1" d="M763.67,488.75c-4.08,5.35,2,11.4,7.32,7.32C775.07,490.72,769,484.67,763.67,488.75Z" transform="translate(-732.33 -472.41)"/></g><g id="Ellipse-7" data-name="Ellipse"><path class="cls-1" d="M733.67,503.75c-4.08,5.35,2,11.4,7.32,7.32C745.07,505.72,739,499.67,733.67,503.75Z" transform="translate(-732.33 -472.41)"/></g><g id="Ellipse-8" data-name="Ellipse"><path class="cls-2" d="M748.67,503.75c-4.08,5.35,2,11.4,7.32,7.32C760.07,505.72,754,499.67,748.67,503.75Z" transform="translate(-732.33 -472.41)"/></g><g id="Ellipse-9" data-name="Ellipse"><path class="cls-1" d="M763.67,503.75c-4.08,5.35,2,11.4,7.32,7.32C775.07,505.72,769,499.67,763.67,503.75Z" transform="translate(-732.33 -472.41)"/></g></svg>